# 3ds Max Wavefront OBJ Exporter v0.99 - (c)2007 guruware
# File Created: 30.12.2020 22:15:48

mtllib Dach5Ready.mtl

#
# object Pyramid001
#

v  0.0000 1.2000 -0.0000
v  -0.6000 0.5000 0.6000
v  0.6000 0.5000 0.6000
v  0.6000 0.5000 -0.6000
v  -0.6000 0.5000 -0.6000
v  0.0000 0.5000 -0.0000
# 6 vertices

vn 0.0000 0.6508 0.7593
vn 0.0000 0.6508 0.7593
vn 0.0000 0.6508 0.7593
vn 0.7593 0.6508 -0.0000
vn 0.7593 0.6508 -0.0000
vn 0.7593 0.6508 -0.0000
vn 0.0000 0.6508 -0.7593
vn 0.0000 0.6508 -0.7593
vn 0.0000 0.6508 -0.7593
vn -0.7593 0.6508 -0.0000
vn -0.7593 0.6508 -0.0000
vn -0.7593 0.6508 -0.0000
vn 0.0000 -1.0000 -0.0000
vn 0.0000 -1.0000 -0.0000
vn 0.0000 -1.0000 -0.0000
vn 0.0000 -1.0000 -0.0000
vn 0.0000 -1.0000 -0.0000
vn 0.0000 -1.0000 -0.0000
vn 0.0000 -1.0000 -0.0000
vn 0.0000 -1.0000 -0.0000
vn 0.0000 -1.0000 -0.0000
vn 0.0000 -1.0000 -0.0000
vn 0.0000 -1.0000 -0.0000
vn 0.0000 -1.0000 -0.0000
# 24 vertex normals

vt 0.5000 1.0000 0.0000
vt 0.0000 0.0000 0.0000
vt 1.0000 0.0000 0.0000
# 3 texture coords


o Pyramid001
g Pyramid001
usemtl Material__25
f 1/1/1 2/2/2 3/3/3 
f 1/1/4 3/2/5 4/3/6 
f 1/1/7 4/2/8 5/3/9 
f 1/1/10 5/2/11 2/3/12 
f 2/1/13 6/2/14 3/3/15 
f 3/1/16 6/2/17 4/3/18 
f 4/1/19 6/2/20 5/3/21 
f 5/1/22 6/2/23 2/3/24 
# 8 faces

