# 3ds Max Wavefront OBJ Exporter v0.99 - (c)2007 guruware
# File Created: 29.11.2020 23:28:32

mtllib kostka.mtl

#
# object Box001
#

v  -0.5000 -0.5000 0.5000
v  0.5000 -0.5000 0.5000
v  -0.5000 -0.5000 -0.5000
v  0.5000 -0.5000 -0.5000
v  -0.5000 0.5000 0.5000
v  0.5000 0.5000 0.5000
v  -0.5000 0.5000 -0.5000
v  0.5000 0.5000 -0.5000
# 8 vertices

vn 0.0000 -1.0000 -0.0000
vn 0.0000 -1.0000 -0.0000
vn 0.0000 -1.0000 -0.0000
vn 0.0000 -1.0000 -0.0000
vn 0.0000 -1.0000 -0.0000
vn 0.0000 -1.0000 -0.0000
vn 0.0000 1.0000 -0.0000
vn 0.0000 1.0000 -0.0000
vn 0.0000 1.0000 -0.0000
vn 0.0000 1.0000 -0.0000
vn 0.0000 1.0000 -0.0000
vn 0.0000 1.0000 -0.0000
vn 0.0000 0.0000 1.0000
vn 0.0000 0.0000 1.0000
vn 0.0000 0.0000 1.0000
vn 0.0000 0.0000 1.0000
vn 0.0000 0.0000 1.0000
vn 0.0000 0.0000 1.0000
vn 1.0000 0.0000 -0.0000
vn 1.0000 0.0000 -0.0000
vn 1.0000 0.0000 -0.0000
vn 1.0000 0.0000 -0.0000
vn 1.0000 0.0000 -0.0000
vn 1.0000 0.0000 -0.0000
vn 0.0000 0.0000 -1.0000
vn 0.0000 0.0000 -1.0000
vn 0.0000 0.0000 -1.0000
vn 0.0000 0.0000 -1.0000
vn 0.0000 0.0000 -1.0000
vn 0.0000 0.0000 -1.0000
vn -1.0000 0.0000 -0.0000
vn -1.0000 0.0000 -0.0000
vn -1.0000 0.0000 -0.0000
vn -1.0000 0.0000 -0.0000
vn -1.0000 0.0000 -0.0000
vn -1.0000 0.0000 -0.0000
# 36 vertex normals

vt 0.0000 1.0000 0.0000
vt 1.0000 1.0000 0.0000
vt 1.0000 0.0000 0.0000
vt 0.0000 0.0000 0.0000
# 4 texture coords

o Box001
g Box001
usemtl Material__25
f 1/1/1 3/4/2 4/3/3 
f 4/3/4 2/2/5 1/1/6 
f 5/1/7 6/2/8 8/3/9 
f 8/3/10 7/4/11 5/1/12 
f 1/4/13 2/3/14 6/2/15 
f 6/2/16 5/1/17 1/4/18 
f 2/4/19 4/3/20 8/2/21 
f 8/2/22 6/1/23 2/4/24 
f 4/4/25 3/3/26 7/2/27 
f 7/2/28 8/1/29 4/4/30
f 3/4/31 1/3/32 5/2/33 
f 5/2/34 7/1/35 3/4/36 
# 12 faces

